<?xml version="1.0" encoding="UTF-8" standalone="no"?><!-- Generator: Gravit.io --><svg xmlns="http://www.w3.org/2000/svg" xmlns:xlink="http://www.w3.org/1999/xlink" style="isolation:isolate" viewBox="424 29 110 109.251" width="110pt" height="109.251pt"><g style="mix-blend-mode:darken;"><path d=" M 472.5 29 L 479 29.5 L 460.5 61 C 452.763 68.009 451.135 79.083 451.5 89 L 451.5 89 L 441 88.5 C 440.552 78.125 441.9 66.629 449 58.5 L 449 58.5 L 465.5 31 L 472.5 29 Z  M 485.5 29 L 496 31.5 L 476 66.5 C 468.971 70.122 467.545 78.287 468 85.5 L 468 85.5 L 469 88.5 L 458.5 89 L 457 82.5 C 458.244 74.966 461.121 67.561 466.5 62 L 466.5 62 L 485.5 29 Z  M 455.5 34 L 457 34.5 C 441.948 48.529 435.931 69.019 434.5 89 L 434.5 89 L 425 88.5 L 424 83.5 C 425.138 67.763 430.428 51.784 443.5 42 L 443.5 42 L 455.5 34 Z  M 502.5 34 C 523.674 44.008 533.984 63.708 534 86.5 L 534 86.5 L 532 87.5 C 525.863 73.275 517.373 60.071 506.5 49 L 506.5 49 L 497 43.5 C 497.5 39.711 499.16 36.076 502.5 34 L 502.5 34 Z  M 493.5 49 C 500.162 50.861 506.157 54.662 510 60.5 L 510 60.5 L 532 98.5 L 526.5 110 C 519.081 93.078 509.443 77.114 497.5 63 L 497.5 63 L 488 57.5 L 493.5 49 Z  M 485.5 63 C 490.297 63.72 494.709 66.072 497 70.5 L 497 70.5 L 523 116.5 L 515 123.5 L 486.5 75 L 480 72.5 C 479.777 68.315 481.091 64.174 485.5 63 L 485.5 63 Z  M 488.5 90 L 494 99.5 C 488.802 106.2 479.083 106.103 471.5 105 L 471.5 105 L 429.5 105 L 426 95.5 L 465.5 95 C 473.146 96.159 482.938 96.418 488.5 90 L 488.5 90 Z  M 496.5 105 L 499 106.5 L 503 113.5 C 485.447 126.383 460.87 125.163 440.5 122 L 440.5 122 L 432 111.5 L 468.5 111 C 477.902 112.087 489.149 111.884 496.5 105 L 496.5 105 Z  M 504.5 119 L 507 120.5 L 511 127.5 Q 498.896 139.896 472.5 138 Q 456.375 136.125 447 127.5 Q 485.908 133.408 504.5 119 Z " fill-rule="evenodd" fill="rgb(255,255,255)"/></g></svg>